<svg xmlns="http://www.w3.org/2000/svg" viewBox="0 0 345.27 63.21">
  <defs>
    <style>
      .cls-1 {
        fill: #fff;
      }
    </style>
  </defs>
  <g id="Layer_2" data-name="Layer 2">
    <g id="Layer_1-2" data-name="Layer 1">
      <g id="Layer_2-2" data-name="Layer 2">
        <g id="Layer_1-2-2" data-name="Layer 1-2">
          <path class="cls-1" d="M53.33,6.31A6.57,6.57,0,0,1,47,13.14h-.72a6.58,6.58,0,1,1,7-6.82Z"/>
          <path class="cls-1" d="M44,51.83l-.44.38Z"/>
          <path class="cls-1" d="M53.33,23.75v7.83A26.64,26.64,0,0,1,44,51.83h0l-.44.38h0a6.63,6.63,0,0,1-6,1.07A6.38,6.38,0,0,1,33.29,49a6.63,6.63,0,0,1,2-7l.15-.12a13.52,13.52,0,0,0,4.79-10.32v-7.7a6.62,6.62,0,0,1,6.23-6.66,6.45,6.45,0,0,1,3.06.57A6.58,6.58,0,0,1,53.33,23.75Z"/>
          <path class="cls-1" d="M36.74,12A6.54,6.54,0,0,1,30,18.37c-.26,0-.52,0-.77-.07l-.42-.07h-.35l-.46-.1H25.83A13.52,13.52,0,0,0,13.15,31.78v.91a5.27,5.27,0,0,0,.11.9v.64a3.47,3.47,0,0,0,.08.4c0,.13.06.22.08.33l.09.32.09.31h0l.09.3h0a1.05,1.05,0,0,0,.11.31c0,.11.09.23.14.35s.06.17.1.26.08.17.11.26l.16.34.14.28h0l.15.29c.05.09.1.19.16.28h0l.17.28.15.25h0c.11.18.23.35.35.52a2.21,2.21,0,0,0,.17.23v.06l.18.23.21.26h0l.2.24.25.28.19.21.22.21c.17.18.35.35.53.51l.16.14c.25.22.52.44.79.64l.25.19h0l.2.14.19.13.15.1q.42.27.87.51l.17.09.15.08.5.24.25.11.25.1.26.1.25.09c.17.07.35.12.52.18l.26.08h.08l.19.06h0a6.58,6.58,0,0,1-2.13,13,6,6,0,0,1-.95-.14h0l-.57-.16h0l-.3-.08L18.63,57l-.32-.1-.55-.19-.22-.08-.26-.09h-.07l-.34-.13-.31-.13-.23-.09-.15-.07L15.87,56h0l-.33-.15h-.08l-.27-.13L15,55.57l-.35-.17-.39-.2L13.9,55l-.24-.13h0a.33.33,0,0,0-.46.12.27.27,0,0,0,0,.18v1.48a6.58,6.58,0,0,1-6.58,6.57h0A6.57,6.57,0,0,1,0,56.64V31.58A26.67,26.67,0,0,1,26.67,4.91h2.6l.5.06.55.07.78.11h0l.39.07h0A6.59,6.59,0,0,1,36.74,12Z"/>
          <path class="cls-1" d="M31.52,5.35h0l-.39-.07h0l-.78-.11L29.8,5.1,29.23,5h-2.6A26.66,26.66,0,0,0,.27,27.76a29.83,29.83,0,0,0-.15,3A28.2,28.2,0,0,0,14,55.05l.28.15.39.2.35.17.13.06.27.13h.08l.33.15h0l.31.13.15.07.23.09.31.13.34.13h.07l.26.09.22.08.55.19.32.1.27.09.3.08h0l.57.16h0a6,6,0,0,0,.95.14A6.58,6.58,0,0,0,23.2,44.65h0l-.2-.07h-.08l-.26-.08c-.17-.06-.35-.11-.52-.18l-.25-.09-.26-.1-.25-.1-.25-.11-.5-.24-.15-.08-.17-.09q-.45-.24-.87-.51l-.15-.1-.19-.13-.2-.14h0l-.25-.19c-.27-.2-.54-.42-.79-.64l-.16-.14c-.18-.16-.36-.33-.53-.51L17,40.94l-.19-.21-.25-.28-.2-.24h0L16,39.92l-.18-.23v-.06c-.06-.07-.11-.15-.17-.23s-.24-.34-.35-.52h0l-.15-.25L15,38.35h0c-.06-.09-.11-.19-.16-.28l-.15-.29h0l-.14-.28-.16-.34c0-.09-.07-.17-.11-.26s-.07-.18-.1-.26-.1-.23-.14-.35-.08-.21-.11-.31h0l-.09-.3h0l-.09-.31L13.57,35a1.32,1.32,0,0,0-.08-.33c0-.11-.05-.26-.08-.4a.37.37,0,0,1,0-.19v-.45c-.05-.29-.08-.59-.11-.9v-.94A13.52,13.52,0,0,1,25.8,18.09H28l.44.05h.35l.42.07A6.58,6.58,0,0,0,31.52,5.35Z"/>
          <path class="cls-1" d="M100.29,13.91l.8,8H87.75v6.68H98.43v8H87.75v12h-8V13.91Zm11.48,0V48.6h-8V13.91Zm20,13.34q0-5.34-4.53-5.34-4.81,0-4.81,5.34V48.6h-8V27.25q0-13.33,12.81-13.34,12.54,0,12.54,13.34V48.6h-8Zm18.68-13.34q17.36,0,17.35,17.34T150.46,48.6h-8V13.91Zm0,8V40.59q9.35,0,9.34-9.34t-9.33-9.34Zm38.7-8V48.6h-8V13.91Zm26.68,0v8h-8V48.6h-8V21.91h-8v-8Zm2.67,24v-24h8v24Zm8,2.66v8h-8v-8Zm13.34,8V37.93q0-10.68,10.68-10.68h2.67a2.37,2.37,0,0,0,2.66-2.67,2.36,2.36,0,0,0-2-2.67,2.43,2.43,0,0,0-.66,0h-12l.8-8H253.2q10.67,0,10.67,10.67T253.21,35.26h-2.67a2.35,2.35,0,0,0-2.67,2,2.51,2.51,0,0,0,0,.67v2.66h16v8Zm52-21.35v8q0,13.32-12.54,13.34-12.81,0-12.81-13.34v-8q0-13.33,12.81-13.34,12.6,0,12.6,13.37ZM279.3,21.88c-3.2,0-4.81,1.78-4.81,5.34v8c0,3.56,1.61,5.33,4.81,5.33,3,0,4.53-1.77,4.53-5.33v-8q.06-5.31-4.47-5.31Zm15.21,26.69V37.93q0-10.68,10.67-10.68h2.67a2.37,2.37,0,0,0,2.67-2,2.43,2.43,0,0,0,0-.66,2.36,2.36,0,0,0-2-2.67,1.89,1.89,0,0,0-.67,0h-12l.8-8h11.21q10.68,0,10.68,10.67T307.91,35.26h-2.67a2.35,2.35,0,0,0-2.67,2,2.51,2.51,0,0,0,0,.67v2.66h16v8Zm26.69,0V37.93q0-10.68,10.67-10.68h2.67a2.37,2.37,0,0,0,2.67-2,2.43,2.43,0,0,0,0-.66,2.36,2.36,0,0,0-2-2.67,1.89,1.89,0,0,0-.67,0h-12l.8-8H334.6q10.66,0,10.67,10.67T334.6,35.26h-2.67a2.35,2.35,0,0,0-2.67,2,2.51,2.51,0,0,0,0,.67v2.66h16v8Z"/>
        </g>
      </g>
    </g>
  </g>
</svg>
