<svg xmlns="http://www.w3.org/2000/svg" xmlns:xlink="http://www.w3.org/1999/xlink" viewBox="0 0 345.27 63.22"><defs><style>.cls-1{fill:url(#linear-gradient);}.cls-2{fill:url(#linear-gradient-2);}.cls-3{fill:url(#linear-gradient-3);}.cls-4{fill:url(#linear-gradient-4);}.cls-5{fill:url(#linear-gradient-5);}.cls-6{fill:url(#linear-gradient-6);}</style><linearGradient id="linear-gradient" x1="46.76" y1="6.58" x2="54.01" y2="-4.39" gradientUnits="userSpaceOnUse"><stop offset="0" stop-color="#00ffce"/><stop offset="0.27" stop-color="#22ffd1"/><stop offset="0.86" stop-color="#78ffd7"/><stop offset="1" stop-color="#8dffd9"/></linearGradient><linearGradient id="linear-gradient-2" x1="43.57" y1="52.03" x2="44.01" y2="52.03" gradientUnits="userSpaceOnUse"><stop offset="0" stop-color="#00ffce"/><stop offset="0.26" stop-color="#39d2cd"/><stop offset="0.85" stop-color="#c661cb"/><stop offset="1" stop-color="#ea44cb"/></linearGradient><linearGradient id="linear-gradient-3" x1="41.08" y1="31.3" x2="50.25" y2="49.47" xlink:href="#linear-gradient-2"/><linearGradient id="linear-gradient-4" x1="31.23" y1="4.19" x2="1.98" y2="62.79" xlink:href="#linear-gradient-2"/><linearGradient id="linear-gradient-5" x1="13.96" y1="5.42" x2="27.28" y2="56.77" xlink:href="#linear-gradient-2"/><linearGradient id="linear-gradient-6" x1="87.75" y1="-1.04" x2="343.16" y2="67.4" xlink:href="#linear-gradient-2"/></defs><g id="Layer_2" data-name="Layer 2"><g id="Layer_1-2" data-name="Layer 1"><path class="cls-1" d="M53.33,6.32a6.57,6.57,0,0,1-6.57,6.84l-.44,0a6.58,6.58,0,1,1,7-6.82Z"/><path class="cls-2" d="M44,51.84l-.44.38Z"/><path class="cls-3" d="M53.33,23.76v7.83A26.61,26.61,0,0,1,44,51.84h0l-.44.38h0a6.61,6.61,0,0,1-6,1.07A6.37,6.37,0,0,1,33.29,49a6.62,6.62,0,0,1,2-7l.15-.12a13.48,13.48,0,0,0,4.79-10.32V23.86a6.63,6.63,0,0,1,6.23-6.66,6.49,6.49,0,0,1,3.06.57A6.59,6.59,0,0,1,53.33,23.76Z"/><path class="cls-4" d="M36.74,12.05a6.54,6.54,0,0,1-7.51,6.26l-.42-.07-.19,0-.16,0L28,18.14l-.31,0-.27,0H27c-.37,0-.73,0-1.17,0A13.53,13.53,0,0,0,13.15,31.79a1.48,1.48,0,0,0,0,.21v.23a.71.71,0,0,1,0,.14c0,.06,0,.11,0,.16s0,.11,0,.17c0,.31.06.61.11.9l0,.19v.08l0,.18c0,.06,0,.13,0,.19s.05.27.08.4.06.22.08.33l.09.32.09.31h0l.09.3v0c0,.1.07.2.11.31s.09.23.14.35a2.77,2.77,0,0,0,.1.26c0,.09.08.17.11.26l.16.34.14.28h0l.15.29a2.54,2.54,0,0,0,.16.28h0l.17.28.15.25,0,0c.11.18.23.35.35.52s.11.16.17.23l0,.06.18.23.21.26h0l.2.24.25.28.19.21.22.21c.17.18.35.35.53.51l.16.14a9.6,9.6,0,0,0,.79.64l.25.19h0l.2.14.19.13.15.1q.42.27.87.51l.17.09.15.08.5.24.25.11.25.1.26.1.25.09c.17.07.35.12.52.18l.26.08h0l.08,0,.19.06h0A6.58,6.58,0,0,1,20.74,57.5a6,6,0,0,1-.95-.14h0l-.57-.16h0l-.3-.08L18.63,57l-.32-.1-.55-.19-.22-.08-.26-.09-.07,0-.34-.13-.31-.13-.23-.09-.15-.07L15.87,56l0,0-.33-.15-.08,0-.27-.13L15,55.58l-.35-.17-.39-.2L13.9,55l-.24-.13h0a.34.34,0,0,0-.51.3v1.48a6.58,6.58,0,0,1-6.58,6.57h0A6.57,6.57,0,0,1,0,56.65V31.59A26.67,26.67,0,0,1,26.67,4.92h1l1,0,.24,0,.36,0,.5.06.55.07.78.11h0l.39.07h0A6.59,6.59,0,0,1,36.74,12.05Z"/><path class="cls-5" d="M31.52,5.36h0l-.39-.07h0l-.78-.11-.55-.07L29.23,5l-.36,0-.24,0-1,0h-1A26.67,26.67,0,0,0,.27,27.77a29.24,29.24,0,0,0-.15,3A28.2,28.2,0,0,0,14,55.06l.28.15.39.2.35.17.13.06.27.13.08,0,.33.15,0,0,.31.13.15.07.23.09.31.13.34.13.07,0,.26.09.22.08.55.19.32.1.27.09.3.08h0l.57.16h0a6,6,0,0,0,.95.14A6.58,6.58,0,0,0,23.2,44.66h0L23,44.59l-.08,0h0l-.26-.08c-.17-.06-.35-.11-.52-.18l-.25-.09-.26-.1-.25-.1-.25-.11-.5-.24-.15-.08-.17-.09q-.45-.24-.87-.51l-.15-.1-.19-.13-.2-.14h0l-.25-.19a9.6,9.6,0,0,1-.79-.64l-.16-.14c-.18-.16-.36-.33-.53-.51l-.22-.21-.19-.21-.25-.28-.2-.24h0L16,39.93l-.18-.23,0-.06c-.06-.07-.11-.15-.17-.23s-.24-.34-.35-.52l0,0-.15-.25-.17-.28h0a2.54,2.54,0,0,1-.16-.28l-.15-.29h0l-.14-.28-.16-.34c0-.09-.07-.17-.11-.26a2.77,2.77,0,0,1-.1-.26c0-.12-.1-.23-.14-.35s-.08-.21-.11-.31v0l-.09-.3h0l-.09-.31L13.57,35c0-.11-.05-.22-.08-.33s-.05-.26-.08-.4,0-.13,0-.19l0-.18v-.08l0-.19c-.05-.29-.08-.59-.11-.9,0-.06,0-.11,0-.17s0-.1,0-.16a.71.71,0,0,0,0-.14V32a1.48,1.48,0,0,1,0-.21A13.53,13.53,0,0,1,25.8,18.1c.44,0,.8,0,1.17,0h.47l.27,0,.31,0,.44.05.16,0,.19,0,.42.07A6.58,6.58,0,0,0,31.52,5.36Z"/><path class="cls-6" d="M100.29,13.92l.8,8H87.75V28.6H98.43v8H87.75v12h-8V13.92Zm11.48,0V48.61h-8V13.92Zm20,13.34q0-5.34-4.53-5.34-4.81,0-4.81,5.34V48.61h-8V27.26q0-13.33,12.81-13.34,12.54,0,12.54,13.34V48.61h-8Zm18.68-13.34q17.35,0,17.35,17.34T150.46,48.61h-8V13.92Zm0,8V40.6q9.34,0,9.34-9.34T150.46,21.92Zm38.7-8V48.61h-8V13.92Zm26.68,0v8h-8V48.61h-8V21.92h-8v-8Zm2.67,24v-24h8v24Zm8,2.66v8h-8v-8Zm13.34,8V37.94q0-10.68,10.68-10.68h2.67a2.36,2.36,0,0,0,2.66-2.67,2.36,2.36,0,0,0-2.66-2.67h-12l.8-8h11.21q10.66,0,10.67,10.67T253.21,35.27h-2.67a2.36,2.36,0,0,0-2.67,2.67V40.6h16v8Zm52-21.35v8q0,13.33-12.54,13.34-12.81,0-12.81-13.34v-8q0-13.33,12.81-13.34Q291.9,13.92,291.9,27.26Zm-12.54-5.34c-3.2,0-4.81,1.78-4.81,5.34v8c0,3.56,1.61,5.33,4.81,5.33,3,0,4.53-1.77,4.53-5.33v-8Q283.89,21.92,279.36,21.92Zm15.21,26.69V37.94q0-10.68,10.67-10.68h2.67a2.36,2.36,0,0,0,2.67-2.67,2.36,2.36,0,0,0-2.67-2.67h-12l.8-8h11.21q10.68,0,10.68,10.67T307.91,35.27h-2.67a2.36,2.36,0,0,0-2.67,2.67V40.6h16v8Zm26.69,0V37.94q0-10.68,10.67-10.68h2.67a2.36,2.36,0,0,0,2.67-2.67,2.36,2.36,0,0,0-2.67-2.67h-12l.8-8H334.6q10.66,0,10.67,10.67T334.6,35.27h-2.67a2.36,2.36,0,0,0-2.67,2.67V40.6h16v8Z"/></g></g></svg>